<?xml version="1.0" encoding="utf-8"?>
<!-- Generator: Adobe Illustrator 19.1.0, SVG Export Plug-In . SVG Version: 6.00 Build 0)  -->
<svg version="1.1" id="Layer_1" xmlns="http://www.w3.org/2000/svg" xmlns:xlink="http://www.w3.org/1999/xlink" x="0px" y="0px"
	 viewBox="0 0 348.3 89.3" enable-background="new 0 0 348.3 89.3" xml:space="preserve">
<path fill="#006E9A" d="M27.5,88.2c-2.7-1.4-5.2-3.3-7.2-5.7c-2.1-2.4-3.7-5.3-4.9-8.5c-1.2-3.2-1.8-6.7-1.8-10.4
	c0-21.9,18.2-33.8,16.2-56c0-1.3-0.2-2.5-0.6-3.7c-0.4-1.1-1-2.1-1.7-3c2.7,1.4,5.2,3.3,7.2,5.7c2.1,2.4,3.7,5.3,4.9,8.5
	c1.1,3.2,1.8,6.7,1.8,10.4c0,18.9-17.2,32.8-17.2,53.1c0,1.8,0.3,3.6,0.9,5.2C25.6,85.5,26.4,87,27.5,88.2"/>
<polygon fill="#00AEEF" points="85.5,56.4 85.5,42.6 72.8,42.6 72.8,56.4 67.3,56.4 67.3,25.2 72.8,25.2 72.8,38.3 85.5,38.3 
	85.5,25.2 91,25.2 91,56.4 "/>
<path fill="#00AEEF" d="M99.2,47c0.3,4.6,2.7,5.7,6.3,5.7c3.2,0,6.1-0.3,8.5-0.6l0.4,3.8c-2.6,0.4-5.7,0.9-10.3,0.9
	c-8,0-10.1-5.2-10.1-12.2c0-8.6,2.7-12.2,10.6-12.2c8.6,0,10.4,4.5,10.4,11.6c0,0.6,0,1.2-0.1,1.8c-2.7,0.5-8.4,1-11.7,1.2L99.2,47z
	 M103.9,43.3c1.8-0.1,4.5-0.3,6.1-0.5c0-0.3,0.1-0.8,0.1-1.1c0-3.6-1.3-5.6-5.3-5.6c-5,0-5.7,3.2-5.7,7.5L103.9,43.3z"/>
<path fill="#00AEEF" d="M117.7,49.3c0-4.2,1.8-6.8,6.4-7.5c2.6-0.4,5.5-0.5,8.4-0.6c0-3.3-1.4-5-5.1-5c-2.8,0-5.8,0.3-8.3,0.6
	l-0.4-3.7c2.6-0.4,5.7-0.9,9.2-0.9c5.2,0,9.6,1.4,9.6,7.5v10.5c0,1.6-0.1,2.9-0.2,4.4c-2.7,1.5-6.2,2.1-10.6,2.1
	C120.2,56.7,117.7,54.2,117.7,49.3 M132.6,44.5c-2.1,0.1-4.5,0.1-6.5,0.6c-2.5,0.6-3.4,1.3-3.4,4.1c0,3,1.7,3.7,4.7,3.7
	c1.6,0,3.5-0.1,5-0.8c0.1-1,0.1-2.1,0.1-3.2V44.5z"/>
<path fill="#00AEEF" d="M141.7,23.4h5.1V50c0,2.2,0.5,3.7,1.7,5.3l-4.4,2.1c-1.6-1.8-2.4-3.9-2.4-7.2V23.4z"/>
<path fill="#00AEEF" d="M164.8,56.3c-1.1,0.2-2.5,0.3-3.6,0.3c-4.8,0-6.9-2.1-6.9-6.5V36.3h-4v-3.8h4v-5.9l5.1-0.8v6.7h4.9v3.8h-4.9
	v13.4c0,2.3,1,3,3.2,3c0.6,0,1.2,0,1.8-0.1L164.8,56.3z"/>
<path fill="#00AEEF" d="M188.8,56.4h-5.1V41.7c0-3.8-0.7-5.4-5.6-5.4c-1.5,0-3.2,0.3-4.5,0.9v19.1h-5.1v-33h5.1v9.8
	c1.7-0.5,3.7-0.9,5.9-0.9c8.4,0,9.3,3.9,9.3,8.9V56.4z"/>
<path fill="#006E9A" d="M214.3,29.9c-1.9-0.3-4-0.5-6.1-0.5c-8.4,0-8.4,4.8-8.4,11.4c0,6.6,0.1,11.4,8.4,11.4c2.1,0,4.2-0.2,6.1-0.5
	l0.5,4.1c-2,0.5-4.7,0.9-7.8,0.9c-10.3,0-12.8-4.8-12.8-15.9c0-11.1,2.5-15.9,12.8-15.9c3.1,0,5.8,0.4,7.8,0.9L214.3,29.9z"/>
<path fill="#006E9A" d="M218,49.3c0-4.2,1.8-6.8,6.4-7.5c2.6-0.4,5.5-0.5,8.4-0.6c0-3.3-1.4-5-5.1-5c-2.8,0-5.8,0.3-8.3,0.6
	l-0.4-3.7c2.6-0.4,5.7-0.9,9.2-0.9c5.2,0,9.6,1.4,9.6,7.5v10.5c0,1.6-0.1,2.9-0.2,4.4c-2.7,1.5-6.2,2.1-10.6,2.1
	C220.5,56.7,218,54.2,218,49.3 M232.8,44.5c-2.1,0.1-4.5,0.1-6.5,0.6c-2.5,0.6-3.4,1.3-3.4,4.1c0,3,1.7,3.7,4.7,3.7
	c1.6,0,3.5-0.1,5-0.8c0.1-1,0.1-2.1,0.1-3.2V44.5z"/>
<path fill="#006E9A" d="M254.8,56.3c-1.1,0.2-2.5,0.3-3.6,0.3c-4.8,0-6.9-2.1-6.9-6.5V36.3h-4v-3.8h4v-5.9l5.1-0.8v6.7h4.9v3.8h-4.9
	v13.4c0,2.3,1,3,3.2,3c0.6,0,1.2,0,1.8-0.1L254.8,56.3z"/>
<path fill="#006E9A" d="M258.4,49.3c0-4.2,1.8-6.8,6.4-7.5c2.6-0.4,5.5-0.5,8.4-0.6c0-3.3-1.4-5-5.1-5c-2.8,0-5.8,0.3-8.3,0.6
	l-0.4-3.7c2.6-0.4,5.7-0.9,9.2-0.9c5.2,0,9.6,1.4,9.6,7.5v10.5c0,1.6-0.1,2.9-0.2,4.4c-2.7,1.5-6.2,2.1-10.6,2.1
	C260.9,56.7,258.4,54.2,258.4,49.3 M273.2,44.5c-2.1,0.1-4.5,0.1-6.5,0.6c-2.5,0.6-3.4,1.3-3.4,4.1c0,3,1.7,3.7,4.7,3.7
	c1.6,0,3.5-0.1,5-0.8c0.1-1,0.1-2.1,0.1-3.2V44.5z"/>
<path fill="#006E9A" d="M281.4,23.4h5.1V50c0,2.2,0.5,3.7,1.7,5.3l-4.4,2.1c-1.6-1.8-2.4-3.9-2.4-7.2V23.4z"/>
<polygon fill="#006E9A" points="302,48.5 307.1,32.6 312.2,32.6 301.1,65.1 296,65.1 299.7,54.8 290.1,32.6 295.4,32.6 "/>
<path fill="#006E9A" d="M325,49.9c0-2.7-2.4-3-4.7-3.6c-3.8-1.2-7.5-2.1-7.5-7.3c0-5.2,3.7-6.7,8.4-6.7c3.3,0,5.6,0.3,8.5,0.9
	l-0.5,3.7c-1.9-0.3-3.9-0.6-5.9-0.6c-1.9,0-5.4,0-5.4,2.4c0,2.5,2.9,2.9,4.9,3.6c4.1,1.4,7.3,2.1,7.3,7.4c0,5.5-4.1,7-9.3,7
	c-2.6,0-5.7-0.3-8.2-0.9l0.5-3.8c1.8,0.3,4.5,0.7,6.3,0.7C321.4,52.6,325,52.7,325,49.9"/>
<path fill="#006E9A" d="M347.5,56.3c-1.1,0.2-2.5,0.3-3.6,0.3c-4.8,0-6.9-2.1-6.9-6.5V36.3h-4v-3.8h4v-5.9l5.1-0.8v6.7h4.9v3.8h-4.9
	v13.4c0,2.3,1,3,3.2,3c0.6,0,1.2,0,1.8-0.1L347.5,56.3z"/>
<path fill="#00AEEF" d="M43.8,87c-1.8-0.9-3.5-2.2-4.8-3.8c-1.4-1.6-2.5-3.6-3.3-5.7c-0.8-2.1-1.2-4.5-1.2-7
	c0-14.7,13.5-23,11.4-41.9c2.6,2.4,4.8,6.5,6,9.6c0.8,2.1,1.2,4.5,1.2,7c0,12.7-11.6,22-11.6,35.6c0,1.2,0.2,2.4,0.6,3.5
	C42.6,85.2,43.2,86.2,43.8,87"/>
<path fill="#00AEEF" d="M10.1,62.1c-1.8-0.9-3.5-2.2-4.8-3.8c-1.4-1.6-2.5-3.6-3.3-5.7c-0.8-2.1-1.2-4.5-1.2-7
	c0-14.7,13.5-23,11.4-41.9c2.6,2.4,4.8,6.5,6,9.6c0.8,2.1,1.2,4.5,1.2,7c0,12.7-11.6,22-11.6,35.6c0,1.2,0.2,2.4,0.6,3.5
	C8.8,60.3,9.4,61.3,10.1,62.1"/>
<path fill="#6D6E71" d="M67.2,65.7c0-0.6,0.1-0.8,0.7-0.8c0.5,0,0.7,0.2,0.7,0.8c0,0.6-0.1,0.8-0.7,0.8S67.2,66.3,67.2,65.7
	 M67.3,68.1h1.1v8h-1.1V68.1z"/>
<path fill="#6D6E71" d="M71.1,78.1c0.9,0.1,1.8,0.2,2.7,0.2c1.7,0,2.2-0.5,2.2-1.9v-0.7c-0.7,0.2-1.5,0.3-2.2,0.3
	c-2.4,0-3.4-1-3.4-4c0-3.1,1.1-4,3.6-4c1,0,2.1,0.2,3,0.6c0,0.4,0,0.9,0,1.4v6.8c0,2-1.4,2.4-3.1,2.4c-1.1,0-2.1-0.1-3.1-0.3
	L71.1,78.1z M71.5,72.1c0,2.2,0.4,3.1,2.6,3.1c0.6,0,1.4-0.1,1.9-0.3v-4.3c0-0.4,0-0.9,0-1.3c-0.5-0.2-1.3-0.4-1.9-0.4
	C72.1,68.9,71.5,70,71.5,72.1"/>
<path fill="#6D6E71" d="M80.6,76.2h-1.1v-6.1c0-0.5,0-0.9,0-1.4c0.9-0.4,2.2-0.7,3.6-0.7c2.7,0,3,1.3,3,2.9v5.2h-1.1v-5
	c0-1.5-0.3-2.2-2.3-2.2c-0.7,0-1.7,0.2-2.2,0.4c0,0.4,0,0.9,0,1.3V76.2z"/>
<path fill="#6D6E71" d="M88.4,65.7c0-0.6,0.1-0.8,0.7-0.8c0.5,0,0.7,0.2,0.7,0.8c0,0.6-0.1,0.8-0.7,0.8
	C88.5,66.5,88.4,66.3,88.4,65.7 M88.5,68.1h1.1v8h-1.1V68.1z"/>
<path fill="#6D6E71" d="M93.8,65.9v2.3h1.8V69h-1.8v5c0,1.1,0.4,1.4,1.4,1.4c0.1,0,0.3,0,0.4,0l0.1,0.8c-0.3,0-0.6,0.1-0.9,0.1
	c-1.5,0-2.1-0.6-2.1-2.1V69h-1.5v-0.9h1.5v-2.1L93.8,65.9z"/>
<path fill="#6D6E71" d="M97,72.2c0-2.9,0.9-4.1,3.5-4.1c2.7,0,3.5,1.4,3.5,3.6c0,0.2,0,0.5,0,0.8c-0.9,0.2-2.8,0.3-4,0.4L98,72.9
	c0.1,1.6,0.6,2.5,2.7,2.5c1,0,2-0.1,2.8-0.2l0.1,0.9c-0.9,0.1-1.8,0.3-3.4,0.3C97.6,76.3,97,74.6,97,72.2 M100.1,72
	c0.7,0,1.9-0.1,2.7-0.2c0-0.2,0-0.4,0-0.6c0-1.4-0.6-2.2-2.4-2.2c-2,0-2.4,1-2.4,3.1L100.1,72z"/>
<path fill="#6D6E71" d="M110,72.2c0-3,0.9-4.1,3.5-4.1c2.6,0,3.5,1.2,3.5,4.1c0,3-0.9,4.1-3.5,4.1C110.9,76.3,110,75.2,110,72.2
	 M116,72.2c0-2.4-0.6-3.2-2.4-3.2c-1.8,0-2.4,0.7-2.4,3.2c0,2.5,0.6,3.2,2.4,3.2C115.4,75.4,116,74.6,116,72.2"/>
<path fill="#6D6E71" d="M119.2,68.1h1.1v5c0,1.5,0.3,2.2,2.3,2.2c0.7,0,1.7-0.2,2.2-0.4c0-0.4,0-0.9,0-1.3v-5.6h1.1v6.1
	c0,0.5,0,0.9,0,1.4c-0.9,0.4-2.2,0.7-3.6,0.7c-2.7,0-3-1.3-3-2.9V68.1z"/>
<path fill="#6D6E71" d="M130.1,65.9v2.3h1.8V69h-1.8v5c0,1.1,0.4,1.4,1.4,1.4c0.1,0,0.3,0,0.4,0l0.1,0.8c-0.3,0-0.6,0.1-0.9,0.1
	c-1.5,0-2.1-0.6-2.1-2.1V69h-1.5v-0.9h1.5v-2.1L130.1,65.9z"/>
<path fill="#6D6E71" d="M138.6,76.1c-0.6,0.1-1.3,0.2-2.1,0.2c-2.7,0-3.2-1.9-3.2-4.2c0-2.6,0.6-4,3.5-4c0.7,0,1.3,0.1,1.8,0.2
	l-0.1,0.8c-0.4-0.1-0.9-0.1-1.3-0.1c-2.5,0-2.8,0.9-2.8,3.1c0,2.1,0.2,3.3,2.7,3.3c0.4,0,1-0.1,1.4-0.2L138.6,76.1z"/>
<path fill="#6D6E71" d="M140,72.2c0-3,0.9-4.1,3.5-4.1c2.6,0,3.5,1.2,3.5,4.1c0,3-0.9,4.1-3.5,4.1C140.9,76.3,140,75.2,140,72.2
	 M145.9,72.2c0-2.4-0.6-3.2-2.4-3.2c-1.8,0-2.4,0.7-2.4,3.2c0,2.5,0.6,3.2,2.4,3.2C145.3,75.4,145.9,74.6,145.9,72.2"/>
<path fill="#6D6E71" d="M150.3,76.2h-1.1v-6.1c0-0.5,0-0.9,0-1.4c0.9-0.4,2.2-0.7,3.3-0.7c1,0,1.7,0.2,2.1,0.6
	c0.8-0.4,1.9-0.6,3-0.6c2.4,0,2.8,1.3,2.8,2.9v5.2h-1.1v-5c0-1.5-0.4-2.2-2-2.2c-0.6,0-1.4,0.2-2.1,0.5c0.1,0.4,0.2,0.9,0.2,1.5v5.2
	h-1.1v-5c0-1.5-0.4-2.2-2-2.2c-0.5,0-1.4,0.2-1.9,0.4c0,0.4,0,0.9,0,1.3V76.2z"/>
<path fill="#6D6E71" d="M162.5,72.2c0-2.9,0.9-4.1,3.5-4.1c2.7,0,3.5,1.4,3.5,3.6c0,0.2,0,0.5,0,0.8c-0.9,0.2-2.8,0.3-4,0.4
	l-1.9,0.1c0.1,1.6,0.6,2.5,2.7,2.5c1,0,2-0.1,2.8-0.2l0.1,0.9c-0.9,0.1-1.8,0.3-3.4,0.3C163.1,76.3,162.5,74.6,162.5,72.2 M165.7,72
	c0.7,0,1.9-0.1,2.7-0.2c0-0.2,0-0.4,0-0.6c0-1.4-0.6-2.2-2.4-2.2c-2,0-2.4,1-2.4,3.1L165.7,72z"/>
<path fill="#6D6E71" d="M172.3,70.1c0,1.1,0.8,1.2,2,1.5c1.6,0.5,2.5,0.9,2.5,2.4c0,1.8-1.3,2.3-3.1,2.3c-0.9,0-1.7-0.1-2.6-0.3
	l0.1-0.9c0.7,0.1,1.4,0.2,2.1,0.2c0.9,0,2.3,0,2.3-1.3c0-1-0.7-1.2-2-1.6c-1.3-0.4-2.5-0.7-2.5-2.3c0-1.7,1.2-2.2,2.8-2.2
	c1,0,1.8,0.1,2.6,0.3l-0.1,0.8c-0.6-0.1-1.3-0.2-2-0.2C173.5,69,172.3,69,172.3,70.1"/>
<path fill="#6D6E71" d="M182.8,65.7c0-0.6,0.1-0.8,0.7-0.8c0.5,0,0.7,0.2,0.7,0.8c0,0.6-0.1,0.8-0.7,0.8
	C182.9,66.5,182.8,66.3,182.8,65.7 M182.9,68.1h1.1v8h-1.1V68.1z"/>
<path fill="#6D6E71" d="M187.4,76.2h-1.1v-6.1c0-0.5,0-0.9,0-1.4c0.9-0.4,2.2-0.7,3.3-0.7c1,0,1.7,0.2,2.1,0.6
	c0.8-0.4,1.9-0.6,3-0.6c2.4,0,2.8,1.3,2.8,2.9v5.2h-1.1v-5c0-1.5-0.4-2.2-2-2.2c-0.6,0-1.4,0.2-2.1,0.5c0.1,0.4,0.2,0.9,0.2,1.5v5.2
	h-1.1v-5c0-1.5-0.4-2.2-2-2.2c-0.5,0-1.4,0.2-1.9,0.4c0,0.4,0,0.9,0,1.3V76.2z"/>
<path fill="#6D6E71" d="M201,79.2h-1.1v-9.1c0-0.5,0-0.9,0-1.4c0.9-0.5,2-0.6,3-0.6c2.6,0,3.6,1,3.6,4.1c0,3.1-1,4.1-3.4,4.1
	c-0.8,0-1.5-0.1-2.2-0.3V79.2z M202.8,75.4c2.2,0,2.6-1,2.6-3.2c0-2.2-0.5-3.2-2.5-3.2c-0.6,0-1.4,0.1-1.9,0.4c0,0.4,0,0.9,0,1.3
	v4.5C201.5,75.2,202.2,75.4,202.8,75.4"/>
<path fill="#6D6E71" d="M208.6,76.2v-6.1c0-0.5,0-0.9,0-1.4c0.9-0.5,2-0.6,3-0.6c0.3,0,0.5,0,0.7,0l-0.1,0.9c-0.2,0-0.4,0-0.7,0
	c-0.6,0-1.4,0.1-1.9,0.4c0,0.4,0,0.9,0,1.3v5.6H208.6z"/>
<path fill="#6D6E71" d="M213.6,72.2c0-3,0.9-4.1,3.5-4.1c2.6,0,3.5,1.2,3.5,4.1c0,3-0.9,4.1-3.5,4.1
	C214.6,76.3,213.6,75.2,213.6,72.2 M219.6,72.2c0-2.4-0.6-3.2-2.4-3.2c-1.8,0-2.4,0.7-2.4,3.2c0,2.5,0.6,3.2,2.4,3.2
	C219,75.4,219.6,74.6,219.6,72.2"/>
<path fill="#6D6E71" d="M226.5,75.5c-0.2,0.5-0.5,0.8-0.9,0.8c-0.4,0-0.7-0.3-0.9-0.8l-2.8-7.4h1.2l2.6,6.8l2.6-6.8h1.1L226.5,75.5z
	"/>
<path fill="#6D6E71" d="M230.6,72.2c0-2.9,0.9-4.1,3.5-4.1c2.7,0,3.5,1.4,3.5,3.6c0,0.2,0,0.5,0,0.8c-0.9,0.2-2.8,0.3-4,0.4
	l-1.9,0.1c0.1,1.6,0.6,2.5,2.7,2.5c1,0,2-0.1,2.8-0.2l0.1,0.9c-0.9,0.1-1.8,0.3-3.4,0.3C231.3,76.3,230.6,74.6,230.6,72.2 M233.8,72
	c0.7,0,1.9-0.1,2.7-0.2c0-0.2,0-0.4,0-0.6c0-1.4-0.6-2.2-2.4-2.2c-2,0-2.4,1-2.4,3.1L233.8,72z"/>
<path fill="#6D6E71" d="M240.7,76.2h-1.1v-6.1c0-0.5,0-0.9,0-1.4c0.9-0.4,2.2-0.7,3.3-0.7c1,0,1.7,0.2,2.1,0.6
	c0.8-0.4,1.9-0.6,3-0.6c2.4,0,2.8,1.3,2.8,2.9v5.2h-1.1v-5c0-1.5-0.4-2.2-2-2.2c-0.6,0-1.4,0.2-2.1,0.5c0.1,0.4,0.2,0.9,0.2,1.5v5.2
	h-1.1v-5c0-1.5-0.4-2.2-2-2.2c-0.5,0-1.4,0.2-1.9,0.4c0,0.4,0,0.9,0,1.3V76.2z"/>
<path fill="#6D6E71" d="M252.9,72.2c0-2.9,0.9-4.1,3.5-4.1c2.7,0,3.5,1.4,3.5,3.6c0,0.2,0,0.5,0,0.8c-0.9,0.2-2.8,0.3-4,0.4
	l-1.9,0.1c0.1,1.6,0.6,2.5,2.7,2.5c1,0,2-0.1,2.8-0.2l0.1,0.9c-0.9,0.1-1.8,0.3-3.4,0.3C253.6,76.3,252.9,74.6,252.9,72.2 M256.1,72
	c0.7,0,1.9-0.1,2.7-0.2c0-0.2,0-0.4,0-0.6c0-1.4-0.6-2.2-2.4-2.2c-2,0-2.4,1-2.4,3.1L256.1,72z"/>
<path fill="#6D6E71" d="M262.9,76.2h-1.1v-6.1c0-0.5,0-0.9,0-1.4c0.9-0.4,2.2-0.7,3.6-0.7c2.7,0,3,1.3,3,2.9v5.2h-1.1v-5
	c0-1.5-0.3-2.2-2.3-2.2c-0.7,0-1.7,0.2-2.2,0.4c0,0.4,0,0.9,0,1.3V76.2z"/>
<path fill="#6D6E71" d="M272.7,65.9v2.3h1.8V69h-1.8v5c0,1.1,0.4,1.4,1.4,1.4c0.1,0,0.3,0,0.4,0l0.1,0.8c-0.3,0-0.6,0.1-0.9,0.1
	c-1.5,0-2.1-0.6-2.1-2.1V69h-1.5v-0.9h1.5v-2.1L272.7,65.9z"/>
</svg>
